<svg xmlns="http://www.w3.org/2000/svg" xmlns:xlink="http://www.w3.org/1999/xlink" version="1.1" width="256" height="256" viewBox="0 0 256 256" xml:space="preserve">

<defs>
</defs>
<g style="stroke: none; stroke-width: 0; stroke-dasharray: none; stroke-linecap: butt; stroke-linejoin: miter; stroke-miterlimit: 10; fill: none; fill-rule: nonzero; opacity: 1;" transform="translate(1.4065934065934016 1.4065934065934016) scale(2.81 2.81)" >
	<path d="M 36.473 47.176 c -3.74 0 -6.783 -3.043 -6.783 -6.784 s 3.043 -6.784 6.783 -6.784 c 3.741 0 6.784 3.043 6.784 6.784 S 40.214 47.176 36.473 47.176 z M 36.473 36.608 c -2.086 0 -3.783 1.697 -3.783 3.784 s 1.697 3.784 3.783 3.784 c 2.086 0 3.784 -1.697 3.784 -3.784 S 38.56 36.608 36.473 36.608 z" style="stroke: none; stroke-width: 1; stroke-dasharray: none; stroke-linecap: butt; stroke-linejoin: miter; stroke-miterlimit: 10; fill: rgb(0,0,0); fill-rule: nonzero; opacity: 1;" transform=" matrix(1 0 0 1 0 0) " stroke-linecap="round" />
	<path d="M 53.526 47.176 c -3.74 0 -6.783 -3.043 -6.783 -6.784 s 3.043 -6.784 6.783 -6.784 c 3.741 0 6.784 3.043 6.784 6.784 S 57.268 47.176 53.526 47.176 z M 53.526 36.608 c -2.086 0 -3.783 1.697 -3.783 3.784 s 1.697 3.784 3.783 3.784 c 2.087 0 3.784 -1.697 3.784 -3.784 S 55.613 36.608 53.526 36.608 z" style="stroke: none; stroke-width: 1; stroke-dasharray: none; stroke-linecap: butt; stroke-linejoin: miter; stroke-miterlimit: 10; fill: rgb(0,0,0); fill-rule: nonzero; opacity: 1;" transform=" matrix(1 0 0 1 0 0) " stroke-linecap="round" />
	<path d="M 48.526 55.094 c -0.384 0 -0.768 -0.146 -1.061 -0.439 L 45 52.189 l -2.466 2.465 c -0.586 0.586 -1.536 0.586 -2.122 0 c -0.585 -0.586 -0.585 -1.536 0 -2.121 l 3.526 -3.525 c 0.586 -0.586 1.535 -0.586 2.121 0 l 3.526 3.525 c 0.586 0.585 0.586 1.535 0 2.121 C 49.294 54.947 48.91 55.094 48.526 55.094 z" style="stroke: none; stroke-width: 1; stroke-dasharray: none; stroke-linecap: butt; stroke-linejoin: miter; stroke-miterlimit: 10; fill: rgb(0,0,0); fill-rule: nonzero; opacity: 1;" transform=" matrix(1 0 0 1 0 0) " stroke-linecap="round" />
	<path d="M 82.671 66.009 h -6.298 l -9.769 -9.769 c 2.693 -4.146 4.168 -8.985 4.168 -13.975 c 0 -3.637 -0.774 -7.193 -2.221 -10.451 l 7.822 -7.821 h 6.298 c 4.041 0 7.329 -3.288 7.329 -7.329 c 0 -4.041 -3.288 -7.329 -7.329 -7.329 h -2.005 V 7.329 C 80.666 3.288 77.378 0 73.337 0 s -7.328 3.288 -7.328 7.329 v 6.298 l -6.999 6.999 c -4.989 -3.256 -10.902 -4.658 -17.013 -3.962 c -3.999 0.453 -7.729 1.873 -10.978 3.99 l -7.027 -7.027 V 7.329 C 23.992 3.288 20.704 0 16.663 0 c -4.041 0 -7.329 3.288 -7.329 7.329 v 2.005 H 7.329 C 3.288 9.334 0 12.622 0 16.663 c 0 4.042 3.288 7.329 7.329 7.329 h 6.299 l 7.832 7.832 c -1.024 2.289 -1.74 4.737 -2.045 7.305 c -0.728 6.14 0.675 12.1 3.964 17.128 l -9.752 9.752 H 7.329 C 3.288 66.009 0 69.296 0 73.337 s 3.288 7.329 7.329 7.329 h 2.005 v 2.005 c 0 4.041 3.288 7.329 7.329 7.329 c 4.042 0 7.329 -3.288 7.329 -7.329 v -6.298 l 5.514 -5.515 c 1.151 3.464 4.416 5.973 8.262 5.973 h 14.463 c 3.845 0 7.111 -2.508 8.262 -5.974 l 5.516 5.516 v 6.298 c 0 4.041 3.287 7.329 7.328 7.329 s 7.329 -3.288 7.329 -7.329 v -2.005 h 2.005 c 4.041 0 7.329 -3.288 7.329 -7.329 S 86.712 66.009 82.671 66.009 z M 68.569 15.309 c 0.281 -0.281 0.439 -0.663 0.439 -1.061 v -6.92 C 69.009 4.942 70.95 3 73.337 3 s 4.329 1.942 4.329 4.329 v 3.505 c 0 0.829 0.672 1.5 1.5 1.5 h 3.505 c 2.387 0 4.329 1.942 4.329 4.329 c 0 2.387 -1.942 4.329 -4.329 4.329 h -6.919 c -0.397 0 -0.779 0.158 -1.061 0.439 l -7.593 7.592 c -1.324 -2.211 -2.978 -4.236 -4.937 -5.986 c -0.234 -0.209 -0.475 -0.406 -0.715 -0.606 L 68.569 15.309 z M 15.309 21.431 c -0.281 -0.281 -0.663 -0.439 -1.061 -0.439 h -6.92 C 4.942 20.992 3 19.05 3 16.663 c 0 -2.387 1.942 -4.329 4.329 -4.329 h 3.505 c 0.829 0 1.5 -0.671 1.5 -1.5 V 7.329 C 12.334 4.942 14.276 3 16.663 3 c 2.387 0 4.329 1.942 4.329 4.329 v 6.92 c 0 0.398 0.158 0.779 0.439 1.061 l 7.137 7.137 c -2.234 1.859 -4.159 4.081 -5.667 6.577 L 15.309 21.431 z M 21.431 74.691 c -0.281 0.281 -0.439 0.663 -0.439 1.061 v 6.919 c 0 2.387 -1.942 4.329 -4.329 4.329 c -2.387 0 -4.329 -1.942 -4.329 -4.329 v -3.505 c 0 -0.828 -0.671 -1.5 -1.5 -1.5 H 7.329 C 4.942 77.666 3 75.724 3 73.337 s 1.942 -4.328 4.329 -4.328 h 6.92 c 0.398 0 0.779 -0.158 1.061 -0.439 l 9.876 -9.876 c 0.131 0.157 0.256 0.318 0.392 0.473 c 2.009 2.301 3.203 5.09 3.434 7.945 L 21.431 74.691 z M 52.231 73.831 h -2.32 v -5.1 c 0 -0.828 -0.672 -1.5 -1.5 -1.5 s -1.5 0.672 -1.5 1.5 v 5.1 h -3.822 v -5.1 c 0 -0.828 -0.671 -1.5 -1.5 -1.5 s -1.5 0.672 -1.5 1.5 v 5.1 h -2.321 c -3.148 0 -5.709 -2.562 -5.709 -5.709 c 0 -3.929 -1.5 -7.811 -4.223 -10.929 C 23.554 52.29 21.621 46 22.395 39.482 c 1.226 -10.325 9.612 -18.667 19.94 -19.837 c 0.905 -0.103 1.805 -0.153 2.698 -0.153 c 5.608 0 10.901 2.007 15.13 5.784 c 4.835 4.319 7.608 10.511 7.608 16.989 c 0 5.509 -2.006 10.828 -5.648 14.976 c -2.697 3.071 -4.183 6.935 -4.183 10.882 C 57.94 71.27 55.379 73.831 52.231 73.831 z M 82.671 77.666 h -3.505 c -0.828 0 -1.5 0.672 -1.5 1.5 v 3.505 c 0 2.387 -1.942 4.329 -4.329 4.329 s -4.328 -1.942 -4.328 -4.329 v -6.919 c 0 -0.397 -0.158 -0.779 -0.439 -1.061 l -7.581 -7.581 c 0.227 -2.862 1.405 -5.632 3.389 -7.89 c 0.152 -0.173 0.283 -0.359 0.429 -0.536 l 9.885 9.885 c 0.281 0.281 0.663 0.439 1.061 0.439 h 6.919 c 2.387 0 4.329 1.941 4.329 4.328 S 85.058 77.666 82.671 77.666 z" style="stroke: none; stroke-width: 1; stroke-dasharray: none; stroke-linecap: butt; stroke-linejoin: miter; stroke-miterlimit: 10; fill: rgb(0,0,0); fill-rule: nonzero; opacity: 1;" transform=" matrix(1 0 0 1 0 0) " stroke-linecap="round" />
</g>
</svg>